[Header]
FileType HTR
DataType HTRS
FileVersion 1
NumSegments 22
NumFrames 5
DataFrameRate 24
EulerRotationOrder ZYX
CalibrationUnits mm
RotationUnits Degrees
GlobalAxisofGravity Y
BoneLengthAxis Y
ScaleFactor 1.0
[SegmentNames&Hierarchy]
reference	GLOBAL
Hips	reference
Spine	Hips
Spine1	Spine
Neck	Spine1
Head	Neck
LeftShoulder	Spine1
LeftArm	LeftShoulder
LeftForeArm	LeftArm
LeftHand	LeftForeArm
RightShoulder	Spine1
RightArm	RightShoulder
RightForeArm	RightArm
RightHand	RightForeArm
LeftUpLeg	Hips
LeftLeg	LeftUpLeg
LeftFoot	LeftLeg
LeftToeBase	LeftFoot
RightUpLeg	Hips
RightLeg	RightUpLeg
RightFoot	RightLeg
RightToeBase	RightFoot
[BasePosition]
reference	0	0	0	0	0	0	1
Hips	0	0	0	0	0	0	1
Spine	0	0	0	-0	-90	0	1
Spine1	0	0	0	0	0	0	1
Neck	0	0	0	82.64767223	-82.64767223	-90	1
Head	0	0	0	-0	-90	0	1
LeftShoulder	0	0	0	0	0	0	1
LeftArm	0	0	0	0	0	0	1
LeftForeArm	0	0	0	0	0	0	1
LeftHand	0	0	0	0	0	0	1
RightShoulder	0	0	0	0	-0	180	1
RightArm	0	0	0	0	-0	180	1
RightForeArm	0	0	0	0	-0	180	1
RightHand	0	0	0	0	-0	180	1
LeftUpLeg	0	0	0	-0	90	0	1
LeftLeg	0	0	0	-0	90	0	1
LeftFoot	0	0	0	-23.42853957	23.42853957	-90	1
LeftToeBase	0	0	0	0	-0	-90	1
RightUpLeg	0	0	0	-0	90	0	1
RightLeg	0	0	0	-0	90	0	1
RightFoot	0	0	0	-23.42853957	23.42853957	-90	1
RightToeBase	0	0	0	0	-0	-90	1
[reference]
10	0	0	0	0	-0	0	1.0
11	0	0	0	0	-0	0	1.0
12	0	0	0	0	-0	0	1.0
13	0	0	0	0	-0	0	1.0
14	0	0	0	0	-0	0	1.0
[Hips]
10	5.201609612	0.03909999877	7.90871048	3.892748356	2.334474564	-80.88794708	1.0
11	5.201609612	0.03909999877	7.90871048	3.597414494	2.526572943	-82.36161041	1.0
12	5.201609612	0.03909999877	7.90871048	3.489034653	3.42781353	-83.21218872	1.0
13	5.201609612	0.03909999877	7.90871048	2.779093266	3.814121246	-84.46722412	1.0
14	5.201609612	0.03909999877	7.90871048	2.708988428	3.282964945	-84.56755829	1.0
[Spine]
10	0	0	0.7457100153	-36.20495224	90.45581055	-28.18408394	1.0
11	0	0	0.7457100153	59.53318024	90.58580017	67.33901978	1.0
12	0	0	0.7457100153	150.184845	90.8959198	158.0705566	1.0
13	0	0	0.7457100153	178.5295715	91.76824188	185.5785828	1.0
14	0	0	0.7457100153	180.09552	91.71340942	186.8652954	1.0
[Spine1]
10	0	0	2.140589952	6.706302643	-2.197020054	-0.09041757882	1.0
11	0	0	2.140589952	7.264428616	-2.795619965	-0.3170463443	1.0
12	0	0	2.140589952	7.772101402	-2.574540138	-0.2897436023	1.0
13	0	0	2.140589952	7.461112499	-1.982278824	-0.1101327911	1.0
14	0	0	2.140589952	7.032642365	-1.344448209	-0.02260771766	1.0
[Neck]
10	0	0	2.32246995	80.49962616	74.58261871	94.91896057	1.0
11	0	0	2.32246995	83.67488861	73.73579407	98.42098999	1.0
12	0	0	2.32246995	84.45065308	73.51200867	99.52244568	1.0
13	0	0	2.32246995	85.37687683	73.38796997	100.1022797	1.0
14	0	0	2.32246995	84.27514648	73.51531982	98.41056824	1.0
[Head]
10	0	-0.1818799973	1.409579992	-71.33815765	99.45828247	-68.16195679	1.0
11	0	-0.1818799973	1.409579992	-72.28643799	100.3272018	-68.67449951	1.0
12	0	-0.1818799973	1.409579992	-74.34490967	100.3874435	-70.44262695	1.0
13	0	-0.1818799973	1.409579992	-79.38478088	100.1317444	-75.18254089	1.0
14	0	-0.1818799973	1.409579992	-79.2229538	100.0377731	-74.88240051	1.0
[LeftShoulder]
10	0.3668199778	0.02662999928	1.946700096	-17.07785988	2.520996571	-13.40342712	1.0
11	0.3668199778	0.02662999928	1.946700096	-18.59010887	1.597446442	-13.62757206	1.0
12	0.3668199778	0.02662999928	1.946700096	-18.55250168	1.883716106	-13.74560452	1.0
13	0.3668199778	0.02662999928	1.946700096	-18.96584892	1.381878376	-13.44120407	1.0
14	0.3668199778	0.02662999928	1.946700096	-19.39133453	1.068394184	-13.40844059	1.0
[LeftArm]
10	1.140689969	0	0	75.96705627	77.3952179	21.17392921	1.0
11	1.140689969	0	0	69.75036621	76.21403503	13.89151192	1.0
12	1.140689969	0	0	62.67041779	74.48194885	6.419445038	1.0
13	1.140689969	0	0	58.02945709	72.70314026	1.120051384	1.0
14	1.140689969	0	0	58.08376312	72.06446838	0.6028650999	1.0
[LeftForeArm]
10	2.749800205	0	0	-2.338569164	-5.621334076	-41.99972916	1.0
11	2.749800205	0	0	-1.093222022	-3.864086151	-52.19609451	1.0
12	2.749800205	0	0	-0.359046191	-2.93990159	-57.68631744	1.0
13	2.749800205	0	0	-0.5327547789	-1.437996864	-64.69766235	1.0
14	2.749800205	0	0	-0.2026464343	-1.06357944	-66.27184296	1.0
[LeftHand]
10	2.295179844	0	0	-4.758544445	2.319533587	-13.3054409	1.0
11	2.295179844	0	0	-3.730050325	5.647119522	-14.89048481	1.0
12	2.295179844	0	0	-2.85643959	6.745751381	-14.72889709	1.0
13	2.295179844	0	0	-2.170424938	5.521456718	-14.96484375	1.0
14	2.295179844	0	0	-1.490341544	4.595005035	-14.67999172	1.0
[RightShoulder]
10	-0.3601199985	0.02662999928	1.946700096	-3.902475119	5.952973366	-177.5189972	1.0
11	-0.3601199985	0.02662999928	1.946700096	-4.174834251	6.513955116	-177.5505829	1.0
12	-0.3601199985	0.02662999928	1.946700096	-4.386559486	6.63483429	-177.4966431	1.0
13	-0.3601199985	0.02662999928	1.946700096	-3.964691877	7.152385712	-177.1212616	1.0
14	-0.3601199985	0.02662999928	1.946700096	-3.693704128	7.157059193	-176.9912567	1.0
[RightArm]
10	-1.140689969	0	0	61.20749664	-73.5487442	-219.6155243	1.0
11	-1.140689969	0	0	54.01181793	-71.67997742	-215.0098267	1.0
12	-1.140689969	0	0	51.80634308	-70.63439941	-213.5410461	1.0
13	-1.140689969	0	0	51.17412567	-69.29813385	-213.3905182	1.0
14	-1.140689969	0	0	51.10010147	-69.03569031	-213.1703644	1.0
[RightForeArm]
10	-2.749800205	0	0	2.41612792	-5.952256203	-177.7875061	1.0
11	-2.749800205	0	0	5.537751198	-7.204076767	-179.2123718	1.0
12	-2.749800205	0	0	6.904296875	-7.561472893	-178.7238464	1.0
13	-2.749800205	0	0	7.752387047	-7.959256172	-175.2723694	1.0
14	-2.749800205	0	0	7.945241928	-8.00894165	-173.3695984	1.0
[RightHand]
10	-2.295179844	0	0	2.55867815	1.799411297	-178.0776367	1.0
11	-2.295179844	0	0	5.60183239	3.749991894	-179.6467743	1.0
12	-2.295179844	0	0	7.030190468	4.199480534	-178.8725281	1.0
13	-2.295179844	0	0	8.18121624	3.23708415	-176.47995	1.0
14	-2.295179844	0	0	8.533588409	3.147748709	-175.5179901	1.0
[LeftUpLeg]
10	0.9094099998	0	0	-9.886032104	-94.20977783	-16.36532974	1.0
11	0.9094099998	0	0	22.44095612	-94.80875397	-47.80492401	1.0
12	0.9094099998	0	0	13.43558884	-96.36980438	-36.85501099	1.0
13	0.9094099998	0	0	-8.561767578	-98.66305542	-9.930755615	1.0
14	0.9094099998	0	0	-3.842963457	-97.82155609	-12.58157158	1.0
[LeftLeg]
10	0	0	-4.498080254	70.09986877	-75.84197235	-36.50179291	1.0
11	0	0	-4.498080254	78.46769714	-79.65493011	-50.38115692	1.0
12	0	0	-4.498080254	62.06770325	-83.45969391	-40.42638016	1.0
13	0	0	-4.498080254	8.369267464	-85.05142212	1.724256277	1.0
14	0	0	-4.498080254	-43.36316681	-85.74471283	47.05615234	1.0
[LeftFoot]
10	0	0	-3.729400158	-59.40340424	-7.741565228	116.0330887	1.0
11	0	0	-3.729400158	-56.32879639	-10.14862537	112.7783966	1.0
12	0	0	-3.729400158	-55.8394928	-13.20729256	113.1069794	1.0
13	0	0	-3.729400158	-50.19763184	-3.512355089	106.5320435	1.0
14	0	0	-3.729400158	-47.39508438	-4.396848202	101.5522385	1.0
[LeftToeBase]
10	0	-1.364109993	-0.5911099911	-1.999999995e-006	0	-1.999999995e-006	1.0
11	0	-1.364109993	-0.5911099911	-1.999999995e-006	0	-1.999999995e-006	1.0
12	0	-1.364109993	-0.5911099911	-1.999999995e-006	0	-1.999999995e-006	1.0
13	0	-1.364109993	-0.5911099911	-1.999999995e-006	0	-1.999999995e-006	1.0
14	0	-1.364109993	-0.5911099911	-1.999999995e-006	0	-1.999999995e-006	1.0
[RightUpLeg]
10	-0.9094099998	0	0	95.37294006	-81.61089325	-85.68310547	1.0
11	-0.9094099998	0	0	127.4752274	-88.54104614	-118.7194443	1.0
12	-0.9094099998	0	0	173.0231171	-88.31385803	-165.0276489	1.0
13	-0.9094099998	0	0	210.2101135	-87.51333618	-203.5383911	1.0
14	-0.9094099998	0	0	227.8542786	-87.04458618	-222.0132446	1.0
[RightLeg]
10	0	0	-4.498080254	61.337677	-86.74037933	-51.71253967	1.0
11	0	0	-4.498080254	51.92103958	-92.34095764	-44.46700287	1.0
12	0	0	-4.498080254	66.23337555	-94.3054657	-59.55654907	1.0
13	0	0	-4.498080254	64.84402466	-97.96639252	-59.06588745	1.0
14	0	0	-4.498080254	60.68260956	-97.39959717	-55.57753754	1.0
[RightFoot]
10	0	0	-3.729400158	-63.42489624	-24.48661041	104.4968414	1.0
11	0	0	-3.729400158	-60.20183563	-26.44067955	92.52733612	1.0
12	0	0	-3.729400158	-59.44812393	-25.85870743	90.26397705	1.0
13	0	0	-3.729400158	-56.91409683	-25.15769196	85.63253021	1.0
14	0	0	-3.729400158	-55.59515381	-24.64966583	85.06550598	1.0
[RightToeBase]
10	0	-1.364109993	-0.5911099911	-9.999999975e-007	0	0	1.0
11	0	-1.364109993	-0.5911099911	-9.999999975e-007	0	0	1.0
12	0	-1.364109993	-0.5911099911	-9.999999975e-007	0	0	1.0
13	0	-1.364109993	-0.5911099911	-9.999999975e-007	0	0	1.0
14	0	-1.364109993	-0.5911099911	-9.999999975e-007	0	0	1.0
[EndOfFile]
